<?xml version="1.0" encoding="UTF-8"?>
<svg id="Layer_1" data-name="Layer 1" xmlns="http://www.w3.org/2000/svg" viewBox="0 0 1000 750">
  <defs>
    <style>
      .cls-1, .cls-2, .cls-3, .cls-4, .cls-5, .cls-6 {
        fill: #3c444c;
      }

      .cls-2 {
        opacity: .25;
      }

      .cls-3 {
        opacity: .4;
      }

      .cls-4 {
        opacity: .55;
      }

      .cls-5 {
        opacity: .7;
      }

      .cls-6 {
        opacity: .85;
      }

      .cls-7 {
        fill: #f4f5f5;
      }

      .cls-8 {
        stroke-width: 1.66px;
      }

      .cls-8, .cls-9 {
        fill: none;
        stroke: #3c444c;
        stroke-miterlimit: 10;
      }

      .cls-10 {
        opacity: .2;
      }

      .cls-9 {
        stroke-width: .75px;
      }
    </style>
  </defs>
  <g class="cls-10">
    <path class="cls-1" d="M732.68,351.03c26.7-26.91,18.17-76.47,1.95-106.23-17.55-32.22-57.35-65.51-94.4-56.39-21.99,5.42-34.33,23.64-47.68,43.37-14.35,21.2-42.87,63.34-26.25,97.95,18.87,39.27,81.66,39.24,100.41,39.23,22.67-.01,48.21-.03,65.97-17.93Z"/>
    <path class="cls-2" d="M594.38,159.05c-9.84-35.35-56.45-52.15-89.92-52.96-36.23-.87-84.38,16.34-94.88,51.75-6.23,21.02,3.27,40.15,13.55,60.86,11.05,22.26,33.02,66.49,70.84,69.29,42.92,3.19,73.91-49.38,83.16-65.08,11.19-18.98,23.79-40.36,17.25-63.87Z"/>
    <path class="cls-4" d="M267,402.21c-26.7,26.91-18.17,76.47-1.95,106.23,17.55,32.22,57.35,65.51,94.4,56.39,21.99-5.42,34.33-23.64,47.68-43.37,14.35-21.2,42.87-63.34,26.25-97.95-18.87-39.27-81.66-39.24-100.41-39.23-22.67.01-48.21.03-65.97,17.93Z"/>
    <path class="cls-3" d="M267,351.03c-26.7-26.91-18.17-76.47-1.95-106.23,17.55-32.22,57.35-65.51,94.4-56.39,21.99,5.42,34.33,23.64,47.68,43.37,14.35,21.2,42.87,63.34,26.25,97.95-18.87,39.27-81.66,39.24-100.41,39.23-22.67-.01-48.21-.03-65.97-17.93Z"/>
    <path class="cls-6" d="M732.68,402.21c26.7,26.91,18.17,76.47,1.95,106.23-17.55,32.22-57.35,65.51-94.4,56.39-21.99-5.42-34.33-23.64-47.68-43.37-14.35-21.2-42.87-63.34-26.25-97.95,18.87-39.27,81.66-39.24,100.41-39.23,22.67.01,48.21.03,65.97,17.93Z"/>
    <path class="cls-5" d="M594.38,591.42c-9.84,35.35-56.45,52.15-89.92,52.96-36.23.87-84.38-16.34-94.88-51.75-6.23-21.02,3.27-40.15,13.55-60.86,11.05-22.26,33.02-66.49,70.84-69.29,42.92-3.19,73.91,49.38,83.16,65.08,11.19,18.98,23.79,40.36,17.25,63.87Z"/>
    <circle class="cls-1" cx="499.87" cy="375.9" r="74.9"/>
    <circle class="cls-7" cx="500.32" cy="376.04" r="60.16"/>
    <g>
      <g>
        <path class="cls-1" d="M468.15,377.48c-2.59-2.52-2.62-6.63-.05-9.2,2.57-2.56,6.75-2.6,9.34-.08,2.38,2.31.24,7.83,2.57,10.91q2.03,2.69-.7.71c-3.14-2.28-8.78-.03-11.16-2.34Z"/>
        <line class="cls-9" x1="502.64" y1="401.86" x2="473.15" y2="373.25"/>
        <path class="cls-1" d="M498.71,408.75c3.05,2.96,7.96,2.91,10.97-.1,3.01-3.01,2.99-7.84-.06-10.8-2.8-2.72-9.19-.21-13.06-2.78q-2.89-1.92-.83.82c2.73,3.63.19,10.15,2.98,12.86Z"/>
      </g>
      <g>
        <path class="cls-1" d="M461.29,392.48c-1.73-1.68-1.74-4.42-.03-6.13,1.71-1.71,4.5-1.73,6.23-.05,1.58,1.54.16,5.22,1.71,7.28q1.35,1.79-.47.47c-2.09-1.52-5.86-.02-7.44-1.56Z"/>
        <line class="cls-9" x1="489.19" y1="413.33" x2="464.28" y2="389.15"/>
        <path class="cls-1" d="M482.69,416.69c2.83,2.74,7.39,2.7,10.19-.09,2.8-2.79,2.77-7.28-.05-10.03-2.6-2.52-8.53-.19-12.13-2.58q-2.69-1.79-.77.76c2.53,3.37.17,9.43,2.77,11.94Z"/>
      </g>
      <g>
        <path class="cls-1" d="M475.51,362.91c-3.46-3.2-3.62-8.55-.36-11.97,3.26-3.42,8.7-3.6,12.16-.4,3.17,2.93.56,10.19,3.69,14.13q2.73,3.44-.89.94c-4.16-2.87-11.44.23-14.61-2.7Z"/>
        <line class="cls-9" x1="515.45" y1="388.2" x2="485.25" y2="360.3"/>
        <path class="cls-1" d="M513.88,398.62c3.52,3.25,9.06,3.07,12.38-.41,3.32-3.48,3.15-8.93-.37-12.19-3.24-2.99-10.37.01-14.82-2.78q-3.32-2.09-.92.95c3.18,4.02.5,11.45,3.72,14.43Z"/>
      </g>
      <g>
        <path class="cls-1" d="M502.43,341.97c-3.02-2.85-7.82-2.75-10.73.23-2.91,2.98-2.82,7.71.2,10.56,2.76,2.61,9.14.02,12.81,2.56q3.2,2.21.8-.81c-2.76-3.48-.32-9.93-3.08-12.54Z"/>
        <line class="cls-9" x1="527.94" y1="376.31" x2="498.08" y2="348.08"/>
        <path class="cls-1" d="M533.72,372.52c2.67,2.53,2.75,6.72.17,9.36-2.58,2.64-6.83,2.73-9.51.21-2.46-2.33-.4-7.83-2.76-11.07q-1.76-2.42.7-.73c3.26,2.24,8.94-.08,11.39,2.24Z"/>
      </g>
      <g>
        <path class="cls-1" d="M519.02,334.98c-2.8-2.65-7.26-2.55-9.96.22-2.7,2.77-2.62,7.16.18,9.81,2.57,2.43,8.49.02,11.9,2.38q2.97,2.05.75-.75c-2.56-3.23-.29-9.22-2.86-11.65Z"/>
        <line class="cls-9" x1="540.22" y1="364.65" x2="510.35" y2="336.42"/>
        <path class="cls-1" d="M540.65,359.07c1.78,1.69,1.83,4.48.12,6.24s-4.56,1.82-6.34.14c-1.64-1.55-.27-5.22-1.84-7.38q-1.17-1.62.47-.49c2.17,1.49,5.96-.05,7.59,1.49Z"/>
      </g>
      <ellipse class="cls-1" cx="464.28" cy="408.25" rx="4.77" ry="4.69" transform="translate(-44.08 56.4) rotate(-6.64)"/>
      <ellipse class="cls-1" cx="536.25" cy="341.82" rx="4.77" ry="4.69" transform="translate(-35.91 64.27) rotate(-6.64)"/>
    </g>
    <g>
      <rect class="cls-1" x="581.69" y="370.8" width="15.95" height="11.42" rx="2.64" ry="2.64" transform="translate(966.18 -213.16) rotate(90)"/>
      <path class="cls-1" d="M592.69,366.92l-15.72-9.41c-3.17-1.9-7.2.39-7.2,4.08v18.83c0,3.7,4.03,5.98,7.2,4.08l15.72-9.41c3.08-1.85,3.08-6.32,0-8.16Z"/>
      <path class="cls-1" d="M592.69,377.94l-15.72-9.41c-3.17-1.9-7.2.39-7.2,4.08v18.83c0,3.7,4.03,5.98,7.2,4.08l15.72-9.41c3.08-1.85,3.08-6.32,0-8.16Z"/>
    </g>
    <g>
      <rect class="cls-1" x="400.34" y="370.8" width="15.95" height="11.42" rx="2.64" ry="2.64" transform="translate(31.81 784.83) rotate(-90)"/>
      <path class="cls-1" d="M405.29,366.92l15.72-9.41c3.17-1.9,7.2.39,7.2,4.08v18.83c0,3.7-4.03,5.98-7.2,4.08l-15.72-9.41c-3.08-1.85-3.08-6.32,0-8.16Z"/>
      <path class="cls-1" d="M405.29,377.94l15.72-9.41c3.17-1.9,7.2.39,7.2,4.08v18.83c0,3.7-4.03,5.98-7.2,4.08l-15.72-9.41c-3.08-1.85-3.08-6.32,0-8.16Z"/>
    </g>
    <g>
      <rect class="cls-1" x="449.32" y="290.52" width="15.95" height="11.42" rx="2.64" ry="2.64" transform="translate(-87.22 277.02) rotate(-30.91)"/>
      <path class="cls-1" d="M447.51,298.57v18.32c0,3.7,4.03,5.98,7.2,4.08l16.15-9.67c3.17-1.9,3.06-6.53-.2-8.28l-16.15-8.65c-3.17-1.7-7,.6-7,4.19Z"/>
      <path class="cls-1" d="M456.97,292.9v18.32c0,3.7,4.03,5.98,7.2,4.08l16.15-9.67c3.17-1.9,3.06-6.53-.2-8.28l-16.15-8.65c-3.17-1.7-7,.6-7,4.19Z"/>
    </g>
    <g>
      <rect class="cls-1" x="533.61" y="289.1" width="15.95" height="11.42" rx="2.64" ry="2.64" transform="translate(203.34 -220.76) rotate(28.17)"/>
      <path class="cls-1" d="M551.47,296.67l.88,18.3c.18,3.69-3.74,6.17-7,4.42l-16.6-8.89c-3.26-1.75-3.37-6.38-.2-8.28l15.72-9.41c3.08-1.85,7.03.26,7.2,3.85Z"/>
      <path class="cls-1" d="M541.75,291.47l.88,18.3c.18,3.69-3.74,6.17-7,4.42l-16.6-8.89c-3.26-1.75-3.37-6.38-.2-8.28l15.72-9.41c3.08-1.85,7.03.26,7.2,3.85Z"/>
    </g>
    <g>
      <rect class="cls-1" x="449.24" y="450.04" width="15.95" height="11.42" rx="2.64" ry="2.64" transform="translate(603.45 1084.53) rotate(-148)"/>
      <path class="cls-1" d="M447.48,453.22l.35-18.32c.07-3.7,4.14-5.9,7.28-3.95l15.97,9.98c3.13,1.96,2.94,6.59-.35,8.27l-16.31,8.34c-3.2,1.64-6.99-.73-6.92-4.33Z"/>
      <path class="cls-1" d="M456.83,459.07l.35-18.32c.07-3.7,4.14-5.9,7.28-3.95l15.97,9.98c3.13,1.96,2.94,6.59-.35,8.27l-16.31,8.34c-3.2,1.64-6.99-.73-6.92-4.33Z"/>
    </g>
    <g>
      <rect class="cls-1" x="532.65" y="449.93" width="15.95" height="11.42" rx="2.64" ry="2.64" transform="translate(1238.53 568.81) rotate(149.09)"/>
      <path class="cls-1" d="M550.4,453.3v-18.32c0-3.7-4.03-5.98-7.2-4.08l-16.15,9.67c-3.17,1.9-3.06,6.53.2,8.28l16.15,8.65c3.17,1.7,7-.6,7-4.19Z"/>
      <path class="cls-1" d="M540.95,458.97v-18.32c0-3.7-4.03-5.98-7.2-4.08l-16.15,9.67c-3.17,1.9-3.06,6.53.2,8.28l16.15,8.65c3.17,1.7,7-.6,7-4.19Z"/>
    </g>
    <g>
      <path class="cls-1" d="M462.86,191.9c-2.8-3.51-2.18-8.59,1.38-11.35,3.57-2.75,8.73-2.14,11.53,1.37,2.57,3.22-.94,9.69,1.45,13.86q2.08,3.63-.97.76c-3.51-3.31-10.83-1.43-13.4-4.65Z"/>
      <line class="cls-8" x1="496.9" y1="221.52" x2="472.43" y2="190.84"/>
      <path class="cls-1" d="M493.93,231.12c2.85,3.58,8.11,4.2,11.74,1.4,3.63-2.8,4.26-7.98,1.41-11.55-2.62-3.29-9.79-1.48-13.58-4.76q-2.83-2.45-1,.76c2.42,4.25-1.18,10.88,1.43,14.15Z"/>
      <path class="cls-1" d="M475.98,183.85c.94,3.96-1.54,7.88-5.52,8.76-3.99.88-7.98-1.63-8.91-5.59-.86-3.63,4.52-7.57,4.18-11.91q-.3-3.78,1.09-.25c1.6,4.07,8.31,5.36,9.17,8.99Z"/>
      <line class="cls-8" x1="458.77" y1="142.57" x2="467.79" y2="180.76"/>
      <path class="cls-1" d="M465.57,135.16c-1.05-4.45-5.54-7.26-10.02-6.28-4.48.98-7.26,5.39-6.21,9.84.97,4.1,8.22,5.52,10.24,10.11q1.51,3.43,1.23-.26c-.37-4.88,5.72-9.33,4.75-13.41Z"/>
      <path class="cls-1" d="M464.9,180.01c3.83-1.39,8.01.62,9.34,4.47,1.33,3.86-.69,8.11-4.52,9.5-3.51,1.27-8.05-3.61-12.31-2.77q-3.72.73-.37-1.05c3.86-2.06,4.36-8.88,7.87-10.15Z"/>
      <line class="cls-8" x1="443.05" y1="195.65" x2="462.79" y2="188.49"/>
      <path class="cls-1" d="M429.88,191.59c-4.3,1.56-6.58,6.34-5.08,10.68,1.49,4.34,6.19,6.59,10.49,5.03,3.96-1.43,4.54-8.8,8.86-11.34q3.23-1.9-.4-1.19c-4.8.94-9.93-4.6-13.87-3.17Z"/>
      <path class="cls-1" d="M539.71,190.53c2.78-3.53,2.13-8.61-1.45-11.34-3.58-2.73-8.74-2.09-11.53,1.44-2.55,3.23.99,9.69-1.37,13.87q-2.06,3.65.98.76c3.49-3.33,10.82-1.49,13.37-4.73Z"/>
      <line class="cls-8" x1="505.84" y1="220.35" x2="530.13" y2="189.54"/>
      <path class="cls-1" d="M507.87,228.84c-2.37,3.01-6.76,3.56-9.81,1.23-3.05-2.33-3.6-6.65-1.23-9.66,2.18-2.76,8.18-1.29,11.34-4.05q2.36-2.07.84.63c-2,3.57,1.04,9.1-1.13,11.85Z"/>
      <path class="cls-1" d="M526.55,182.56c-.91,3.97,1.58,7.87,5.58,8.72,3.99.85,7.97-1.67,8.88-5.64.84-3.63-4.56-7.55-4.25-11.89q.27-3.78-1.09-.24c-1.57,4.08-8.28,5.41-9.12,9.04Z"/>
      <line class="cls-8" x1="543.51" y1="141.19" x2="534.72" y2="179.43"/>
      <path class="cls-1" d="M536.67,133.81c1.03-4.46,5.49-7.3,9.98-6.34,4.49.96,7.29,5.35,6.27,9.81-.94,4.1-8.19,5.57-10.18,10.17q-1.49,3.44-1.23-.25c.35-4.88-5.77-9.3-4.83-13.38Z"/>
      <path class="cls-1" d="M537.6,178.65c-3.83-1.36-8,.66-9.31,4.53-1.31,3.87.74,8.11,4.58,9.47,3.51,1.25,8.02-3.66,12.3-2.84q3.73.71.37-1.06c-3.87-2.03-4.42-8.85-7.93-10.1Z"/>
      <line class="cls-8" x1="559.54" y1="194.17" x2="539.76" y2="187.13"/>
      <path class="cls-1" d="M572.68,190.03c4.31,1.53,6.61,6.3,5.14,10.65-1.47,4.35-6.15,6.63-10.46,5.09-3.96-1.41-4.59-8.78-8.92-11.29q-3.24-1.88.39-1.19c4.8.91,9.9-4.66,13.85-3.25Z"/>
      <ellipse class="cls-1" cx="435.33" cy="161.75" rx="11.54" ry="11.36" transform="translate(-16.1 52.74) rotate(-6.81)"/>
      <ellipse class="cls-1" cx="488.19" cy="161.59" rx="9.62" ry="9.47" transform="translate(-15.71 59) rotate(-6.81)"/>
      <ellipse class="cls-1" cx="508.73" cy="181.25" rx="3.85" ry="3.79" transform="translate(-17.9 61.58) rotate(-6.81)"/>
      <ellipse class="cls-1" cx="567.08" cy="166.74" rx="7.7" ry="7.57" transform="translate(-15.77 68.39) rotate(-6.81)"/>
    </g>
  </g>
</svg>