<?xml version="1.0" encoding="UTF-8"?>
<svg xmlns="http://www.w3.org/2000/svg" viewBox="0 0 260.79 275.04">
  <defs>
    <style>
      .cls-1 {
        stroke-width: .39px;
      }

      .cls-1, .cls-2 {
        fill: none;
        stroke: #3c454c;
        stroke-miterlimit: 10;
      }

      .cls-3 {
        opacity: .25;
      }

      .cls-3, .cls-4, .cls-5, .cls-6, .cls-7, .cls-8 {
        fill: #3c454c;
      }

      .cls-4 {
        opacity: .7;
      }

      .cls-5 {
        opacity: .85;
      }

      .cls-6 {
        opacity: .55;
      }

      .cls-7 {
        opacity: .4;
      }

      .cls-2 {
        stroke-width: .87px;
      }

      .cls-9 {
        fill: #f5f6f6;
      }
    </style>
  </defs>
  <g id="Layer_1" data-name="Layer 1">
    <path class="cls-8" d="M251.84,124.29c13.92-14.04,9.47-39.88,1.02-55.4-9.16-16.8-29.91-34.17-49.24-29.41-11.47,2.82-17.91,12.33-24.87,22.62-7.49,11.06-22.36,33.04-13.69,51.09,9.84,20.48,42.59,20.47,52.37,20.46,11.82,0,25.14-.01,34.41-9.35Z"/>
    <path class="cls-3" d="M179.84,27.64C174.71,9.2,150.39.44,132.93.02c-18.9-.46-44.01,8.52-49.49,26.99-3.25,10.97,1.71,20.94,7.07,31.74,5.77,11.61,17.22,34.68,36.95,36.14,22.39,1.66,38.55-25.76,43.38-33.94,5.83-9.9,12.41-21.05,9-33.31Z"/>
    <path class="cls-6" d="M8.95,150.98c-13.92,14.04-9.47,39.88-1.02,55.4,9.16,16.8,29.91,34.17,49.24,29.41,11.47-2.82,17.91-12.33,24.87-22.62,7.49-11.06,22.36-33.04,13.69-51.09-9.84-20.48-42.59-20.47-52.37-20.46-11.82,0-25.14.01-34.41,9.35Z"/>
    <path class="cls-7" d="M8.95,124.29c-13.92-14.04-9.47-39.88-1.02-55.4,9.16-16.8,29.91-34.17,49.24-29.41,11.47,2.82,17.91,12.33,24.87,22.62,7.49,11.06,22.36,33.04,13.69,51.09-9.84,20.48-42.59,20.47-52.37,20.46-11.82,0-25.14-.01-34.41-9.35Z"/>
    <path class="cls-5" d="M251.84,150.98c13.92,14.04,9.47,39.88,1.02,55.4-9.16,16.8-29.91,34.17-49.24,29.41-11.47-2.82-17.91-12.33-24.87-22.62-7.49-11.06-22.36-33.04-13.69-51.09,9.84-20.48,42.59-20.47,52.37-20.46,11.82,0,25.14.01,34.41,9.35Z"/>
    <path class="cls-4" d="M179.84,247.4c-5.13,18.44-29.44,27.2-46.9,27.62-18.9.46-44.01-8.52-49.49-26.99-3.25-10.97,1.71-20.94,7.07-31.74,5.77-11.61,17.22-34.68,36.95-36.14,22.39-1.66,38.55,25.76,43.38,33.94,5.83,9.9,12.41,21.05,9,33.31Z"/>
  </g>
  <g id="Layer_2" data-name="Layer 2">
    <g>
      <circle class="cls-8" cx="130.41" cy="137.27" r="39.07"/>
      <circle class="cls-9" cx="130.64" cy="137.33" r="31.38"/>
      <g>
        <rect class="cls-8" x="173.08" y="134.6" width="8.32" height="5.96" rx="1.38" ry="1.38" transform="translate(314.82 -39.66) rotate(90)"/>
        <path class="cls-8" d="M178.82,132.58l-8.2-4.91c-1.65-.99-3.76.2-3.76,2.13v9.82c0,1.93,2.1,3.12,3.76,2.13l8.2-4.91c1.61-.96,1.61-3.29,0-4.26Z"/>
        <path class="cls-8" d="M178.82,138.33l-8.2-4.91c-1.65-.99-3.76.2-3.76,2.13v9.82c0,1.93,2.1,3.12,3.76,2.13l8.2-4.91c1.61-.96,1.61-3.29,0-4.26Z"/>
      </g>
      <g>
        <rect class="cls-8" x="78.5" y="134.6" width="8.32" height="5.96" rx="1.38" ry="1.38" transform="translate(-54.93 220.24) rotate(-90)"/>
        <path class="cls-8" d="M81.08,132.58l8.2-4.91c1.65-.99,3.76.2,3.76,2.13v9.82c0,1.93-2.1,3.12-3.76,2.13l-8.2-4.91c-1.61-.96-1.61-3.29,0-4.26Z"/>
        <path class="cls-8" d="M81.08,138.33l8.2-4.91c1.65-.99,3.76.2,3.76,2.13v9.82c0,1.93-2.1,3.12-3.76,2.13l-8.2-4.91c-1.61-.96-1.61-3.29,0-4.26Z"/>
      </g>
      <g>
        <rect class="cls-8" x="104.04" y="92.73" width="8.32" height="5.96" rx="1.38" ry="1.38" transform="translate(-33.8 69.18) rotate(-30.91)"/>
        <path class="cls-8" d="M103.1,96.93v9.56c0,1.93,2.1,3.12,3.76,2.13l8.43-5.05c1.65-.99,1.6-3.41-.1-4.32l-8.43-4.51c-1.65-.89-3.65.31-3.65,2.19Z"/>
        <path class="cls-8" d="M108.03,93.97v9.56c0,1.93,2.1,3.12,3.76,2.13l8.43-5.05c1.65-.99,1.6-3.41-.1-4.32l-8.43-4.51c-1.65-.89-3.65.31-3.65,2.19Z"/>
      </g>
      <g>
        <rect class="cls-8" x="148" y="91.99" width="8.32" height="5.96" rx="1.38" ry="1.38" transform="translate(62.86 -60.59) rotate(28.17)"/>
        <path class="cls-8" d="M157.32,95.94l.46,9.55c.09,1.93-1.95,3.22-3.65,2.31l-8.66-4.64c-1.7-.91-1.76-3.33-.1-4.32l8.2-4.91c1.61-.96,3.66.14,3.75,2.01Z"/>
        <path class="cls-8" d="M152.25,93.22l.46,9.55c.09,1.93-1.95,3.22-3.65,2.31l-8.66-4.64c-1.7-.91-1.76-3.33-.1-4.32l8.2-4.91c1.61-.96,3.66.14,3.75,2.01Z"/>
      </g>
      <g>
        <rect class="cls-8" x="104" y="175.93" width="8.32" height="5.96" rx="1.38" ry="1.38" transform="translate(105.08 387.95) rotate(-148)"/>
        <path class="cls-8" d="M103.08,177.59l.18-9.56c.04-1.93,2.16-3.08,3.8-2.06l8.33,5.2c1.64,1.02,1.53,3.44-.19,4.31l-8.51,4.35c-1.67.85-3.65-.38-3.61-2.26Z"/>
        <path class="cls-8" d="M107.96,180.64l.18-9.56c.04-1.93,2.16-3.08,3.8-2.06l8.33,5.2c1.64,1.02,1.53,3.44-.19,4.31l-8.51,4.35c-1.67.85-3.65-.38-3.61-2.26Z"/>
      </g>
      <g>
        <rect class="cls-8" x="147.5" y="175.88" width="8.32" height="5.96" rx="1.38" ry="1.38" transform="translate(373.67 254.38) rotate(149.09)"/>
        <path class="cls-8" d="M156.77,177.63v-9.56c0-1.93-2.1-3.12-3.76-2.13l-8.43,5.05c-1.65.99-1.6,3.41.1,4.32l8.43,4.51c1.65.89,3.65-.31,3.65-2.19Z"/>
        <path class="cls-8" d="M151.83,180.59v-9.56c0-1.93-2.1-3.12-3.76-2.13l-8.43,5.05c-1.65.99-1.6,3.41.1,4.32l8.43,4.51c1.65.89,3.65-.31,3.65-2.19Z"/>
      </g>
    </g>
  </g>
  <g id="Layer_3" data-name="Layer 3">
    <g>
      <g>
        <path class="cls-8" d="M113.87,138.09c-1.35-1.31-1.36-3.46-.03-4.8,1.34-1.34,3.52-1.36,4.87-.04,1.24,1.2.12,4.08,1.34,5.69q1.06,1.4-.36.37c-1.64-1.19-4.58-.02-5.82-1.22Z"/>
        <line class="cls-1" x1="131.85" y1="150.81" x2="116.47" y2="135.88"/>
        <path class="cls-8" d="M129.8,154.4c1.59,1.54,4.15,1.52,5.72-.05,1.57-1.57,1.56-4.09-.03-5.63-1.46-1.42-4.79-.11-6.81-1.45q-1.51-1-.43.43c1.42,1.89.1,5.3,1.55,6.71Z"/>
      </g>
      <g>
        <path class="cls-8" d="M110.29,145.91c-.9-.88-.91-2.31-.02-3.2.89-.89,2.35-.9,3.25-.03.83.8.08,2.72.89,3.79q.71.93-.24.25c-1.09-.79-3.05-.01-3.88-.81Z"/>
        <line class="cls-1" x1="124.84" y1="156.79" x2="111.84" y2="144.17"/>
        <path class="cls-8" d="M121.45,158.54c1.47,1.43,3.85,1.41,5.31-.05,1.46-1.46,1.45-3.8-.03-5.23-1.36-1.32-4.45-.1-6.32-1.35q-1.4-.93-.4.4c1.32,1.76.09,4.92,1.44,6.23Z"/>
      </g>
      <g>
        <path class="cls-8" d="M117.7,130.49c-1.8-1.67-1.89-4.46-.19-6.24,1.7-1.78,4.54-1.88,6.34-.21,1.65,1.53.29,5.31,1.93,7.37q1.42,1.79-.46.49c-2.17-1.5-5.97.12-7.62-1.41Z"/>
        <line class="cls-1" x1="138.53" y1="143.68" x2="122.78" y2="129.13"/>
        <path class="cls-8" d="M137.72,149.11c1.84,1.7,4.73,1.6,6.46-.21,1.73-1.81,1.64-4.66-.19-6.36-1.69-1.56-5.41,0-7.73-1.45q-1.73-1.09-.48.49c1.66,2.09.26,5.97,1.94,7.53Z"/>
      </g>
      <g>
        <path class="cls-8" d="M131.74,119.57c-1.57-1.49-4.08-1.43-5.6.12-1.52,1.55-1.47,4.02.1,5.51,1.44,1.36,4.77.01,6.68,1.33q1.67,1.15.42-.42c-1.44-1.81-.16-5.18-1.61-6.54Z"/>
        <line class="cls-1" x1="145.05" y1="137.48" x2="129.47" y2="122.75"/>
        <path class="cls-8" d="M148.07,135.5c1.39,1.32,1.44,3.5.09,4.88-1.34,1.38-3.56,1.43-4.96.11-1.28-1.21-.21-4.08-1.44-5.78q-.92-1.26.37-.38c1.7,1.17,4.66-.04,5.94,1.17Z"/>
      </g>
      <g>
        <path class="cls-8" d="M140.4,115.92c-1.46-1.38-3.79-1.33-5.2.11-1.41,1.44-1.37,3.73.1,5.12,1.34,1.27,4.43.01,6.2,1.24q1.55,1.07.39-.39c-1.34-1.68-.15-4.81-1.49-6.07Z"/>
        <line class="cls-1" x1="151.45" y1="131.4" x2="135.88" y2="116.67"/>
        <path class="cls-8" d="M151.68,128.48c.93.88.96,2.34.06,3.25-.9.92-2.38.95-3.31.07-.86-.81-.14-2.72-.96-3.85q-.61-.84.24-.25c1.13.78,3.11-.03,3.96.78Z"/>
      </g>
      <ellipse class="cls-8" cx="111.85" cy="154.14" rx="2.49" ry="2.45" transform="translate(-17.07 13.96) rotate(-6.64)"/>
      <ellipse class="cls-8" cx="149.38" cy="119.49" rx="2.49" ry="2.45" transform="translate(-12.81 18.07) rotate(-6.64)"/>
    </g>
  </g>
  <g id="Layer_4" data-name="Layer 4">
    <g>
      <path class="cls-8" d="M111.24,44.77c-1.46-1.83-1.14-4.48.72-5.92,1.86-1.44,4.55-1.12,6.02.72,1.34,1.68-.49,5.06.76,7.23q1.09,1.9-.51.4c-1.83-1.73-5.65-.75-6.99-2.42Z"/>
      <line class="cls-2" x1="129" y1="60.22" x2="116.23" y2="44.22"/>
      <path class="cls-8" d="M127.44,65.23c1.49,1.87,4.23,2.19,6.12.73,1.89-1.46,2.22-4.16.73-6.02-1.37-1.72-5.11-.77-7.08-2.48q-1.48-1.28-.52.4c1.26,2.22-.62,5.67.75,7.38Z"/>
      <path class="cls-8" d="M118.08,40.57c.49,2.07-.8,4.11-2.88,4.57-2.08.46-4.16-.85-4.65-2.91-.45-1.89,2.36-3.95,2.18-6.21q-.16-1.97.57-.13c.83,2.12,4.34,2.8,4.78,4.69Z"/>
      <line class="cls-2" x1="109.11" y1="19.04" x2="113.81" y2="38.96"/>
      <path class="cls-8" d="M112.65,15.18c-.55-2.32-2.89-3.79-5.22-3.28-2.34.51-3.79,2.81-3.24,5.13.5,2.14,4.29,2.88,5.34,5.27q.79,1.79.64-.14c-.2-2.54,2.98-4.87,2.48-6.99Z"/>
      <path class="cls-8" d="M112.31,38.57c2-.72,4.18.32,4.87,2.33.69,2.01-.36,4.23-2.36,4.95-1.83.66-4.2-1.88-6.42-1.45q-1.94.38-.19-.55c2.01-1.07,2.28-4.63,4.1-5.29Z"/>
      <line class="cls-2" x1="100.91" y1="46.73" x2="111.2" y2="43"/>
      <path class="cls-8" d="M94.04,44.61c-2.24.81-3.43,3.31-2.65,5.57.78,2.26,3.23,3.44,5.47,2.62,2.06-.75,2.37-4.59,4.62-5.92q1.68-.99-.21-.62c-2.5.49-5.18-2.4-7.23-1.65Z"/>
      <path class="cls-8" d="M151.32,44.06c1.45-1.84,1.11-4.49-.76-5.91-1.87-1.43-4.56-1.09-6.01.75-1.33,1.69.52,5.05-.71,7.23q-1.07,1.9.51.39c1.82-1.74,5.64-.78,6.97-2.47Z"/>
      <line class="cls-2" x1="133.66" y1="59.61" x2="146.33" y2="43.54"/>
      <path class="cls-8" d="M134.72,64.04c-1.24,1.57-3.53,1.85-5.12.64-1.59-1.21-1.88-3.47-.64-5.04,1.14-1.44,4.27-.67,5.91-2.11q1.23-1.08.44.33c-1.05,1.86.54,4.74-.59,6.18Z"/>
      <path class="cls-8" d="M144.46,39.9c-.48,2.07.83,4.11,2.91,4.55,2.08.44,4.15-.87,4.63-2.94.44-1.9-2.38-3.94-2.21-6.2q.14-1.97-.57-.13c-.82,2.13-4.32,2.82-4.75,4.72Z"/>
      <line class="cls-2" x1="153.3" y1="18.32" x2="148.72" y2="38.27"/>
      <path class="cls-8" d="M149.74,14.48c.53-2.33,2.86-3.81,5.2-3.31,2.34.5,3.8,2.79,3.27,5.11-.49,2.14-4.27,2.91-5.31,5.3q-.78,1.79-.64-.13c.18-2.54-3.01-4.85-2.52-6.98Z"/>
      <path class="cls-8" d="M150.22,37.86c-2-.71-4.17.35-4.86,2.36-.68,2.02.39,4.23,2.39,4.94,1.83.65,4.18-1.91,6.41-1.48q1.94.37.19-.55c-2.02-1.06-2.3-4.62-4.14-5.27Z"/>
      <line class="cls-2" x1="161.67" y1="45.96" x2="151.35" y2="42.28"/>
      <path class="cls-8" d="M168.52,43.8c2.25.8,3.45,3.29,2.68,5.55-.77,2.27-3.21,3.46-5.46,2.66-2.07-.74-2.39-4.58-4.65-5.89q-1.69-.98.21-.62c2.51.47,5.16-2.43,7.22-1.7Z"/>
      <ellipse class="cls-8" cx="96.88" cy="29.05" rx="6.02" ry="5.93" transform="translate(-2.76 11.69) rotate(-6.81)"/>
      <ellipse class="cls-8" cx="124.45" cy="28.97" rx="5.02" ry="4.94" transform="translate(-2.56 14.96) rotate(-6.81)"/>
      <ellipse class="cls-8" cx="135.16" cy="39.22" rx="2.01" ry="1.98" transform="translate(-3.7 16.3) rotate(-6.81)"/>
      <ellipse class="cls-8" cx="165.6" cy="31.65" rx="4.01" ry="3.95" transform="translate(-2.58 19.85) rotate(-6.81)"/>
    </g>
  </g>
</svg>
